# xmcd
#
# Track frame offsets: 
#        150
#        4407
#        22137
#        36115
#        51495
#        62892
#        81997
#        96067
#        109720
#        136225
#        144945
#        163572
#        177765
#        189435
#        204145
#
# Disc length: 2917 seconds
#
# Revision: 3
# Processed by: cddbd v1.5.2PL0 Copyright (c) Steve Scherf et al.
# Submitted via: ExactAudioCopy v0.99pb4
#
DISCID=c80b630f
DTITLE=The Hilltops - Big Black River
DYEAR=1996
DGENRE=Indie
TTITLE0=Double Nickel Breakdown
TTITLE1=Broke Down And Busted
TTITLE2=Old House
TTITLE3=Mary Jane
TTITLE4=I'd Like To See You
TTITLE5=Dead End Street
TTITLE6=900 Miles
TTITLE7=Sidewalk
TTITLE8=Big Black River
TTITLE9=I Might Be The Last One
TTITLE10=Strange Love
TTITLE11=Blue
TTITLE12=Walk A Mile
TTITLE13=Judgement Day
TTITLE14=Seafoam Green
EXTD=
EXTT0=
EXTT1=
EXTT2=
EXTT3=
EXTT4=
EXTT5=
EXTT6=
EXTT7=
EXTT8=
EXTT9=
EXTT10=
EXTT11=
EXTT12=
EXTT13=
EXTT14=
PLAYORDER=
